# Exported from ProBuilder
# http://www.procore3d.com/probuilder
# 4/27/2018 4:56:24 PM

mtllib ./playerDiamond.mtl
o playerDiamond

g pb-MergedObject-2883182
v 0 0 0
v 0.48 0 0.48
v 0.48 1.45 0
v 0 0 0
v 0.48 0 0.48
v 0.48 0 0
v 0.48 0 0.48
v 0.96 0 0
v 0.48 1.45 0
v 0.48 0 0.48
v 0.96 0 0
v 0.48 0 0
v 0.96 0 0
v 0.48 0 -0.48
v 0.48 1.45 0
v 0.96 0 0
v 0.48 0 -0.48
v 0.48 0 0
v 0.48 0 -0.48
v 0 0 0
v 0.48 1.45 0
v 0.48 0 -0.48
v 0 0 0
v 0.48 0 0
v 0 0 0
v 0.48 0 0.48
v 0.48 -1.45 0
v 0 0 0
v 0.48 0 0.48
v 0.48 0 0
v 0.48 0 0.48
v 0.96 0 0
v 0.48 -1.45 0
v 0.48 0 0.48
v 0.96 0 0
v 0.48 0 0
v 0.96 0 0
v 0.48 0 -0.48
v 0.48 -1.45 0
v 0.96 0 0
v 0.48 0 -0.48
v 0.48 0 0
v 0.48 0 -0.48
v 0 0 0
v 0.48 -1.45 0
v 0.48 0 -0.48
v 0 0 0
v 0.48 0 0

vn -0.6884962 0.227916 0.6884962
vn -0.6884962 0.227916 0.6884962
vn -0.6884962 0.227916 0.6884962
vn 0 -1 0
vn 0 -1 0
vn 0 -1 0
vn 0.6884962 0.227916 0.6884962
vn 0.6884962 0.227916 0.6884962
vn 0.6884962 0.227916 0.6884962
vn 0 -1 0
vn 0 -1 0
vn 0 -1 0
vn 0.6884962 0.227916 -0.6884962
vn 0.6884962 0.227916 -0.6884962
vn 0.6884962 0.227916 -0.6884962
vn 0 -1 0
vn 0 -1 0
vn 0 -1 0
vn -0.6884962 0.227916 -0.6884962
vn -0.6884962 0.227916 -0.6884962
vn -0.6884962 0.227916 -0.6884962
vn 0 -1 0
vn 0 -1 0
vn 0 -1 0
vn -0.6884962 -0.227916 0.6884962
vn -0.6884962 -0.227916 0.6884962
vn -0.6884962 -0.227916 0.6884962
vn 0 1 0
vn 0 1 0
vn 0 1 0
vn 0.6884962 -0.227916 0.6884962
vn 0.6884962 -0.227916 0.6884962
vn 0.6884962 -0.227916 0.6884962
vn 0 1 0
vn 0 1 0
vn 0 1 0
vn 0.6884962 -0.227916 -0.6884962
vn 0.6884962 -0.227916 -0.6884962
vn 0.6884962 -0.227916 -0.6884962
vn 0 1 0
vn 0 1 0
vn 0 1 0
vn -0.6884962 -0.227916 -0.6884962
vn -0.6884962 -0.227916 -0.6884962
vn -0.6884962 -0.227916 -0.6884962
vn 0 1 0
vn 0 1 0
vn 0 1 0

vt 0 0
vt 0.6788225 -2.349587E-09
vt 0.3394113 1.489194
vt 0 0
vt 0.48 0.48
vt 0.48 0
vt -7.536805E-09 -0.1547145
vt 0.6788225 -0.1547145
vt 0.3394112 1.33448
vt 0.48 0.48
vt 0.96 -4.196293E-08
vt 0.48 0
vt -0.6788225 -0.1547145
vt -2.861023E-08 -0.1547145
vt -0.3394112 1.33448
vt 0.96 -4.196293E-08
vt 0.48 -0.48
vt 0.48 0
vt -0.6788225 0
vt 0 0
vt -0.3394112 1.489195
vt 0.48 -0.48
vt 0 0
vt 0.48 0
vt 0 0
vt -0.6788225 -2.349587E-09
vt -0.3394113 1.489194
vt 0 0
vt -0.48 0.48
vt -0.48 0
vt 7.536805E-09 -0.1547145
vt -0.6788225 -0.1547145
vt -0.3394112 1.33448
vt -0.48 0.48
vt -0.96 -4.196293E-08
vt -0.48 0
vt 0.6788225 -0.1547145
vt 0 -0.1547145
vt 0.3394112 1.33448
vt -0.96 -4.196293E-08
vt -0.48 -0.48
vt -0.48 0
vt 0.6788225 0
vt 0 0
vt 0.3394112 1.489195
vt -0.48 -0.48
vt 0 0
vt -0.48 0

g pb-MergedObject-2883182
usemtl Blue
f 1/1/1 2/2/2 3/3/3
f 6/6/6 5/5/5 4/4/4
f 7/7/7 8/8/8 9/9/9
f 12/12/12 11/11/11 10/10/10
f 13/13/13 14/14/14 15/15/15
f 18/18/18 17/17/17 16/16/16
f 19/19/19 20/20/20 21/21/21
f 24/24/24 23/23/23 22/22/22
f 27/27/27 26/26/26 25/25/25
f 28/28/28 29/29/29 30/30/30
f 33/33/33 32/32/32 31/31/31
f 34/34/34 35/35/35 36/36/36
f 39/39/39 38/38/38 37/37/37
f 40/40/40 41/41/41 42/42/42
f 45/45/45 44/44/44 43/43/43
f 46/46/46 47/47/47 48/48/48

